<svg width="1500" height="500" viewBox="0 0 1500 500" fill="none" xmlns="http://www.w3.org/2000/svg">
  <defs>
    <linearGradient id="bannerBg" x1="0%" y1="0%" x2="100%" y2="100%">
      <stop offset="0%" style="stop-color:#0a0a0a"/>
      <stop offset="30%" style="stop-color:#0f0f1a"/>
      <stop offset="70%" style="stop-color:#1a1a2e"/>
      <stop offset="100%" style="stop-color:#16213e"/>
    </linearGradient>
    <linearGradient id="orangeGlow" x1="0%" y1="0%" x2="100%" y2="0%">
      <stop offset="0%" style="stop-color:#f97316" stop-opacity="0"/>
      <stop offset="50%" style="stop-color:#f97316" stop-opacity="0.3"/>
      <stop offset="100%" style="stop-color:#f97316" stop-opacity="0"/>
    </linearGradient>
    <linearGradient id="lobsterGradient" x1="0%" y1="0%" x2="0%" y2="100%">
      <stop offset="0%" style="stop-color:#ef4444"/>
      <stop offset="50%" style="stop-color:#dc2626"/>
      <stop offset="100%" style="stop-color:#b91c1c"/>
    </linearGradient>
    <filter id="textGlow" x="-50%" y="-50%" width="200%" height="200%">
      <feGaussianBlur stdDeviation="4" result="coloredBlur"/>
      <feMerge>
        <feMergeNode in="coloredBlur"/>
        <feMergeNode in="SourceGraphic"/>
      </feMerge>
    </filter>
    <filter id="lobsterGlow" x="-50%" y="-50%" width="200%" height="200%">
      <feGaussianBlur stdDeviation="2" result="coloredBlur"/>
      <feMerge>
        <feMergeNode in="coloredBlur"/>
        <feMergeNode in="SourceGraphic"/>
      </feMerge>
    </filter>
  </defs>
  
  <!-- Background -->
  <rect width="1500" height="500" fill="url(#bannerBg)"/>
  
  <!-- Stars -->
  <circle cx="100" cy="80" r="2" fill="white" opacity="0.6"/>
  <circle cx="250" cy="150" r="1.5" fill="white" opacity="0.4"/>
  <circle cx="400" cy="50" r="2" fill="white" opacity="0.5"/>
  <circle cx="600" cy="120" r="1" fill="white" opacity="0.3"/>
  <circle cx="800" cy="60" r="2" fill="white" opacity="0.5"/>
  <circle cx="1000" cy="100" r="1.5" fill="white" opacity="0.4"/>
  <circle cx="1150" cy="40" r="2" fill="white" opacity="0.6"/>
  <circle cx="1300" cy="130" r="1" fill="white" opacity="0.3"/>
  <circle cx="1400" cy="70" r="1.5" fill="white" opacity="0.5"/>
  <circle cx="150" cy="400" r="1.5" fill="white" opacity="0.4"/>
  <circle cx="350" cy="450" r="2" fill="white" opacity="0.5"/>
  <circle cx="550" cy="380" r="1" fill="white" opacity="0.3"/>
  <circle cx="900" cy="420" r="2" fill="white" opacity="0.4"/>
  <circle cx="1100" cy="450" r="1.5" fill="white" opacity="0.5"/>
  <circle cx="1350" cy="400" r="2" fill="white" opacity="0.4"/>
  
  <!-- Glow line -->
  <rect x="0" y="245" width="1500" height="10" fill="url(#orangeGlow)"/>
  
  <!-- Lobster (scaled down) -->
  <g transform="translate(180, 250) scale(0.7)" filter="url(#lobsterGlow)">
    <!-- Main body -->
    <ellipse cx="0" cy="20" rx="35" ry="50" fill="url(#lobsterGradient)"/>
    
    <!-- Tail segments -->
    <ellipse cx="0" cy="75" rx="30" ry="15" fill="#dc2626"/>
    <ellipse cx="0" cy="95" rx="25" ry="12" fill="#dc2626"/>
    <ellipse cx="0" cy="112" rx="20" ry="10" fill="#dc2626"/>
    
    <!-- Tail fan -->
    <ellipse cx="-18" cy="130" rx="12" ry="18" fill="#ef4444" transform="rotate(-20)"/>
    <ellipse cx="0" cy="135" rx="10" ry="20" fill="#ef4444"/>
    <ellipse cx="18" cy="130" rx="12" ry="18" fill="#ef4444" transform="rotate(20)"/>
    
    <!-- Head -->
    <ellipse cx="0" cy="-35" rx="28" ry="25" fill="url(#lobsterGradient)"/>
    
    <!-- Eyes -->
    <circle cx="-12" cy="-45" r="6" fill="#1a1a2e"/>
    <circle cx="12" cy="-45" r="6" fill="#1a1a2e"/>
    <circle cx="-10" cy="-47" r="2" fill="white"/>
    <circle cx="14" cy="-47" r="2" fill="white"/>
    
    <!-- Antennae -->
    <path d="M -15 -55 Q -30 -90 -50 -85" stroke="#ef4444" stroke-width="3" fill="none" stroke-linecap="round"/>
    <path d="M 15 -55 Q 30 -90 50 -85" stroke="#ef4444" stroke-width="3" fill="none" stroke-linecap="round"/>
    <path d="M -10 -58 Q -20 -80 -35 -95" stroke="#ef4444" stroke-width="2" fill="none" stroke-linecap="round"/>
    <path d="M 10 -58 Q 20 -80 35 -95" stroke="#ef4444" stroke-width="2" fill="none" stroke-linecap="round"/>
    
    <!-- Claws -->
    <path d="M -35 0 Q -70 -20 -85 -50" stroke="#dc2626" stroke-width="12" fill="none" stroke-linecap="round"/>
    <ellipse cx="-95" cy="-65" rx="25" ry="15" fill="#ef4444" transform="rotate(-30)"/>
    <ellipse cx="-85" cy="-55" rx="20" ry="10" fill="#dc2626" transform="rotate(-30)"/>
    <path d="M -105 -80 L -120 -95" stroke="#ef4444" stroke-width="6" fill="none" stroke-linecap="round"/>
    <path d="M -105 -80 L -115 -65" stroke="#ef4444" stroke-width="6" fill="none" stroke-linecap="round"/>
    
    <path d="M 35 0 Q 70 -20 85 -50" stroke="#dc2626" stroke-width="12" fill="none" stroke-linecap="round"/>
    <ellipse cx="95" cy="-65" rx="25" ry="15" fill="#ef4444" transform="rotate(30)"/>
    <ellipse cx="85" cy="-55" rx="20" ry="10" fill="#dc2626" transform="rotate(30)"/>
    <path d="M 105 -80 L 120 -95" stroke="#ef4444" stroke-width="6" fill="none" stroke-linecap="round"/>
    <path d="M 105 -80 L 115 -65" stroke="#ef4444" stroke-width="6" fill="none" stroke-linecap="round"/>
    
    <!-- Legs -->
    <path d="M -30 15 Q -55 25 -65 40" stroke="#dc2626" stroke-width="4" fill="none" stroke-linecap="round"/>
    <path d="M -28 30 Q -50 45 -60 60" stroke="#dc2626" stroke-width="4" fill="none" stroke-linecap="round"/>
    <path d="M -25 45 Q -45 60 -55 75" stroke="#dc2626" stroke-width="4" fill="none" stroke-linecap="round"/>
    
    <path d="M 30 15 Q 55 25 65 40" stroke="#dc2626" stroke-width="4" fill="none" stroke-linecap="round"/>
    <path d="M 28 30 Q 50 45 60 60" stroke="#dc2626" stroke-width="4" fill="none" stroke-linecap="round"/>
    <path d="M 25 45 Q 45 60 55 75" stroke="#dc2626" stroke-width="4" fill="none" stroke-linecap="round"/>
  </g>
  
  <!-- Main text -->
  <text x="750" y="200" text-anchor="middle" font-family="system-ui, -apple-system, sans-serif" font-size="80" font-weight="700" fill="white" filter="url(#textGlow)">clawloan</text>
  
  <!-- Tagline -->
  <text x="750" y="280" text-anchor="middle" font-family="system-ui, -apple-system, sans-serif" font-size="30" fill="#f97316">The Credit Layer for AI Agents</text>
  
  <!-- Subtitle -->
  <text x="750" y="330" text-anchor="middle" font-family="system-ui, -apple-system, sans-serif" font-size="18" fill="#71717a">ERC-8004 Identity ? On-chain Reputation ? DeFi Lending</text>
  
  <!-- Chains badges -->
  <rect x="580" y="370" rx="12" ry="12" width="80" height="28" fill="#3b82f6" fill-opacity="0.2"/>
  <text x="620" y="390" text-anchor="middle" font-family="system-ui, sans-serif" font-size="14" fill="#60a5fa">Base</text>
  
  <rect x="680" y="370" rx="12" ry="12" width="100" height="28" fill="#8b5cf6" fill-opacity="0.2"/>
  <text x="730" y="390" text-anchor="middle" font-family="system-ui, sans-serif" font-size="14" fill="#a78bfa">Arbitrum</text>
  
  <rect x="800" y="370" rx="12" ry="12" width="100" height="28" fill="#ef4444" fill-opacity="0.2"/>
  <text x="850" y="390" text-anchor="middle" font-family="system-ui, sans-serif" font-size="14" fill="#f87171">Optimism</text>
</svg>
