<svg width="400" height="400" viewBox="0 0 400 400" fill="none" xmlns="http://www.w3.org/2000/svg">
  <defs>
    <linearGradient id="bgGradient" x1="0%" y1="0%" x2="100%" y2="100%">
      <stop offset="0%" style="stop-color:#0a0a0a"/>
      <stop offset="50%" style="stop-color:#1a1a2e"/>
      <stop offset="100%" style="stop-color:#16213e"/>
    </linearGradient>
    <linearGradient id="ringGradient" x1="0%" y1="0%" x2="100%" y2="100%">
      <stop offset="0%" style="stop-color:#f97316"/>
      <stop offset="100%" style="stop-color:#ea580c"/>
    </linearGradient>
    <linearGradient id="lobsterGradient" x1="0%" y1="0%" x2="0%" y2="100%">
      <stop offset="0%" style="stop-color:#ef4444"/>
      <stop offset="50%" style="stop-color:#dc2626"/>
      <stop offset="100%" style="stop-color:#b91c1c"/>
    </linearGradient>
    <filter id="glow" x="-50%" y="-50%" width="200%" height="200%">
      <feGaussianBlur stdDeviation="8" result="coloredBlur"/>
      <feMerge>
        <feMergeNode in="coloredBlur"/>
        <feMergeNode in="SourceGraphic"/>
      </feMerge>
    </filter>
    <filter id="lobsterGlow" x="-50%" y="-50%" width="200%" height="200%">
      <feGaussianBlur stdDeviation="3" result="coloredBlur"/>
      <feMerge>
        <feMergeNode in="coloredBlur"/>
        <feMergeNode in="SourceGraphic"/>
      </feMerge>
    </filter>
  </defs>
  
  <!-- Background circle -->
  <circle cx="200" cy="200" r="190" fill="url(#bgGradient)"/>
  
  <!-- Outer ring -->
  <circle cx="200" cy="200" r="180" fill="none" stroke="url(#ringGradient)" stroke-width="8" filter="url(#glow)"/>
  
  <!-- Inner subtle ring -->
  <circle cx="200" cy="200" r="160" fill="none" stroke="#f97316" stroke-width="1" opacity="0.3"/>
  
  <!-- Lobster body -->
  <g transform="translate(200, 200)" filter="url(#lobsterGlow)">
    <!-- Main body -->
    <ellipse cx="0" cy="20" rx="35" ry="50" fill="url(#lobsterGradient)"/>
    
    <!-- Tail segments -->
    <ellipse cx="0" cy="75" rx="30" ry="15" fill="#dc2626"/>
    <ellipse cx="0" cy="95" rx="25" ry="12" fill="#dc2626"/>
    <ellipse cx="0" cy="112" rx="20" ry="10" fill="#dc2626"/>
    
    <!-- Tail fan -->
    <ellipse cx="-18" cy="130" rx="12" ry="18" fill="#ef4444" transform="rotate(-20)"/>
    <ellipse cx="0" cy="135" rx="10" ry="20" fill="#ef4444"/>
    <ellipse cx="18" cy="130" rx="12" ry="18" fill="#ef4444" transform="rotate(20)"/>
    
    <!-- Head -->
    <ellipse cx="0" cy="-35" rx="28" ry="25" fill="url(#lobsterGradient)"/>
    
    <!-- Eyes -->
    <circle cx="-12" cy="-45" r="6" fill="#1a1a2e"/>
    <circle cx="12" cy="-45" r="6" fill="#1a1a2e"/>
    <circle cx="-10" cy="-47" r="2" fill="white"/>
    <circle cx="14" cy="-47" r="2" fill="white"/>
    
    <!-- Antennae -->
    <path d="M -15 -55 Q -30 -90 -50 -85" stroke="#ef4444" stroke-width="3" fill="none" stroke-linecap="round"/>
    <path d="M 15 -55 Q 30 -90 50 -85" stroke="#ef4444" stroke-width="3" fill="none" stroke-linecap="round"/>
    <path d="M -10 -58 Q -20 -80 -35 -95" stroke="#ef4444" stroke-width="2" fill="none" stroke-linecap="round"/>
    <path d="M 10 -58 Q 20 -80 35 -95" stroke="#ef4444" stroke-width="2" fill="none" stroke-linecap="round"/>
    
    <!-- Claws -->
    <!-- Left claw arm -->
    <path d="M -35 0 Q -70 -20 -85 -50" stroke="#dc2626" stroke-width="12" fill="none" stroke-linecap="round"/>
    <!-- Left claw -->
    <ellipse cx="-95" cy="-65" rx="25" ry="15" fill="#ef4444" transform="rotate(-30)"/>
    <ellipse cx="-85" cy="-55" rx="20" ry="10" fill="#dc2626" transform="rotate(-30)"/>
    <!-- Left claw pincer -->
    <path d="M -105 -80 L -120 -95" stroke="#ef4444" stroke-width="6" fill="none" stroke-linecap="round"/>
    <path d="M -105 -80 L -115 -65" stroke="#ef4444" stroke-width="6" fill="none" stroke-linecap="round"/>
    
    <!-- Right claw arm -->
    <path d="M 35 0 Q 70 -20 85 -50" stroke="#dc2626" stroke-width="12" fill="none" stroke-linecap="round"/>
    <!-- Right claw -->
    <ellipse cx="95" cy="-65" rx="25" ry="15" fill="#ef4444" transform="rotate(30)"/>
    <ellipse cx="85" cy="-55" rx="20" ry="10" fill="#dc2626" transform="rotate(30)"/>
    <!-- Right claw pincer -->
    <path d="M 105 -80 L 120 -95" stroke="#ef4444" stroke-width="6" fill="none" stroke-linecap="round"/>
    <path d="M 105 -80 L 115 -65" stroke="#ef4444" stroke-width="6" fill="none" stroke-linecap="round"/>
    
    <!-- Legs -->
    <path d="M -30 15 Q -55 25 -65 40" stroke="#dc2626" stroke-width="4" fill="none" stroke-linecap="round"/>
    <path d="M -28 30 Q -50 45 -60 60" stroke="#dc2626" stroke-width="4" fill="none" stroke-linecap="round"/>
    <path d="M -25 45 Q -45 60 -55 75" stroke="#dc2626" stroke-width="4" fill="none" stroke-linecap="round"/>
    
    <path d="M 30 15 Q 55 25 65 40" stroke="#dc2626" stroke-width="4" fill="none" stroke-linecap="round"/>
    <path d="M 28 30 Q 50 45 60 60" stroke="#dc2626" stroke-width="4" fill="none" stroke-linecap="round"/>
    <path d="M 25 45 Q 45 60 55 75" stroke="#dc2626" stroke-width="4" fill="none" stroke-linecap="round"/>
  </g>
  
  <!-- Subtle stars -->
  <circle cx="80" cy="80" r="2" fill="white" opacity="0.6"/>
  <circle cx="320" cy="70" r="1.5" fill="white" opacity="0.4"/>
  <circle cx="330" cy="300" r="2" fill="white" opacity="0.5"/>
  <circle cx="70" cy="310" r="1.5" fill="white" opacity="0.3"/>
</svg>
